<svg width="1440" height="1024" viewBox="0 0 1440 1024" fill="none" xmlns="http://www.w3.org/2000/svg">
<rect width="1440" height="1024" fill="white"/>
<path d="M480.844 502.225L519.069 359.567L661.728 321.342L766.161 425.775L727.936 568.433L585.277 606.658L480.844 502.225Z" stroke="black" stroke-width="4"/>
<path d="M793.79 451.907L755.565 594.565L612.907 632.79L508.474 528.357L546.699 385.699L689.357 347.474L793.79 451.907Z" stroke="black" stroke-width="4"/>
<path d="M630.695 496V499H633.695V496H630.695ZM610.246 496L607.639 497.485L608.502 499H610.246V496ZM580.012 442.914L582.619 441.429L577.012 431.585V442.914H580.012ZM580.012 496V499H583.012V496H580.012ZM559.445 496H556.445V499H559.445V496ZM559.445 410.688V407.688H556.445V410.688H559.445ZM580.012 410.688L582.62 409.205L581.757 407.688H580.012V410.688ZM610.188 463.773L607.579 465.256L613.188 475.122V463.773H610.188ZM610.188 410.688V407.688H607.188V410.688H610.188ZM630.695 410.688H633.695V407.688H630.695V410.688ZM630.695 493H610.246V499H630.695V493ZM612.853 494.515L582.619 441.429L577.405 444.399L607.639 497.485L612.853 494.515ZM577.012 442.914V496H583.012V442.914H577.012ZM580.012 493H559.445V499H580.012V493ZM562.445 496V410.688H556.445V496H562.445ZM559.445 413.688H580.012V407.688H559.445V413.688ZM577.404 412.17L607.579 465.256L612.796 462.291L582.62 409.205L577.404 412.17ZM613.188 463.773V410.688H607.188V463.773H613.188ZM610.188 413.688H630.695V407.688H610.188V413.688ZM627.695 410.688V496H633.695V410.688H627.695Z" fill="black"/>
<path d="M683.133 518.038L684.634 515.44L683.133 518.038ZM651.673 507.496L650.205 510.113L650.217 510.119L650.23 510.126L651.673 507.496ZM647.938 465.577L649.783 467.942L649.789 467.937L649.795 467.933L647.938 465.577ZM703.221 465.577L701.427 467.982L703.221 465.577ZM714.012 486.744V489.744H717.012V486.744H714.012ZM685.955 486.744H682.955V489.744H685.955V486.744ZM667.195 478.443L669.077 480.78L669.097 480.764L669.116 480.748L667.195 478.443ZM679.48 494.381L678.928 497.329L678.933 497.331L679.48 494.381ZM693.592 497.95L694.568 495.114L694.564 495.112L693.592 497.95ZM702.889 542.94L701.161 540.488L701.152 540.494L702.889 542.94ZM634.905 520.196V517.196H631.905V520.196H634.905ZM661.053 520.196L664.052 520.116L663.974 517.196H661.053V520.196ZM665.203 529.327L663.436 531.751L663.452 531.763L663.469 531.775L665.203 529.327ZM683.963 529.825L682.089 527.483L682.072 527.496L682.056 527.509L683.963 529.825ZM689.868 523.766C689.868 520.075 687.824 517.284 684.634 515.44L681.632 520.636C683.422 521.67 683.868 522.697 683.868 523.766H689.868ZM684.634 515.44C681.698 513.744 676.547 512.173 669.589 510.627L668.288 516.484C675.275 518.037 679.587 519.454 681.632 520.636L684.634 515.44ZM669.589 510.627C662.797 509.118 657.331 507.179 653.116 504.866L650.23 510.126C655.09 512.794 661.135 514.895 668.288 516.484L669.589 510.627ZM653.141 504.88C648.934 502.52 645.866 499.752 643.799 496.627L638.795 499.937C641.487 504.007 645.336 507.381 650.205 510.113L653.141 504.88ZM643.799 496.627C641.77 493.559 640.728 490.022 640.728 485.914H634.728C634.728 491.103 636.065 495.811 638.795 499.937L643.799 496.627ZM640.728 485.914C640.728 478.642 643.665 472.717 649.783 467.942L646.092 463.212C638.597 469.062 634.728 476.695 634.728 485.914H640.728ZM649.795 467.933C655.944 463.084 664.143 460.525 674.666 460.525V454.525C663.165 454.525 653.545 457.335 646.08 463.222L649.795 467.933ZM674.666 460.525C686.068 460.525 694.894 463.108 701.427 467.982L705.015 463.173C697.159 457.311 686.949 454.525 674.666 454.525V460.525ZM701.427 467.982C707.885 472.801 711.012 478.977 711.012 486.744H717.012C717.012 477.025 712.944 469.089 705.015 463.173L701.427 467.982ZM714.012 483.744H685.955V489.744H714.012V483.744ZM688.955 486.744C688.955 482.643 687.867 479.027 685.177 476.475C682.517 473.95 678.798 472.953 674.583 472.953V478.953C677.949 478.953 679.917 479.755 681.047 480.827C682.148 481.872 682.955 483.651 682.955 486.744H688.955ZM674.583 472.953C671.046 472.953 667.877 473.971 665.275 476.139L669.116 480.748C670.498 479.596 672.254 478.953 674.583 478.953V472.953ZM665.313 476.107C662.655 478.248 661.207 481.108 661.207 484.503H667.207C667.207 483.028 667.751 481.848 669.077 480.78L665.313 476.107ZM661.207 484.503C661.207 488.196 663.11 491.096 666.249 493.093L669.47 488.032C667.739 486.93 667.207 485.79 667.207 484.503H661.207ZM666.249 493.093C669.177 494.957 673.509 496.314 678.928 497.329L680.033 491.432C674.827 490.456 671.411 489.267 669.47 488.032L666.249 493.093ZM678.933 497.331C684.194 498.307 688.751 499.463 692.62 500.788L694.564 495.112C690.353 493.67 685.502 492.447 680.028 491.431L678.933 497.331ZM692.615 500.787C699.007 502.987 703.529 505.966 706.452 509.572C709.342 513.138 710.846 517.532 710.846 522.936H716.846C716.846 516.331 714.974 510.557 711.113 505.794C707.284 501.071 701.679 497.562 694.568 495.114L692.615 500.787ZM710.846 522.936C710.846 530.05 707.753 535.844 701.161 540.488L704.617 545.393C712.634 539.744 716.846 532.201 716.846 522.936H710.846ZM701.152 540.494C694.543 545.186 685.796 547.66 674.666 547.66V553.66C686.668 553.66 696.735 550.988 704.625 545.387L701.152 540.494ZM674.666 547.66C667.337 547.66 660.913 546.343 655.331 543.783L652.829 549.237C659.311 552.21 666.611 553.66 674.666 553.66V547.66ZM655.331 543.783C649.711 541.205 645.447 537.758 642.416 533.485L637.522 536.956C641.242 542.201 646.385 546.281 652.829 549.237L655.331 543.783ZM642.416 533.485C639.358 529.175 637.905 524.764 637.905 520.196H631.905C631.905 526.143 633.828 531.748 637.522 536.956L642.416 533.485ZM634.905 523.196H661.053V517.196H634.905V523.196ZM658.054 520.276C658.182 525.088 659.834 529.125 663.436 531.751L666.971 526.903C665.26 525.656 664.145 523.606 664.052 520.116L658.054 520.276ZM663.469 531.775C666.756 534.103 670.813 535.149 675.413 535.149V529.149C671.713 529.149 668.963 528.314 666.937 526.879L663.469 531.775ZM675.413 535.149C679.555 535.149 683.221 534.323 685.87 532.141L682.056 527.509C680.942 528.427 678.908 529.149 675.413 529.149V535.149ZM685.837 532.168C688.489 530.046 689.868 527.163 689.868 523.766H683.868C683.868 525.349 683.311 526.505 682.089 527.483L685.837 532.168Z" fill="black"/>
<g filter="url(#filter0_d)">
<path d="M526.329 667.219C526.257 667.756 526.025 668.186 525.631 668.508C525.237 668.83 524.789 668.991 524.288 668.991C524.216 668.991 524.091 668.991 523.912 668.991C523.733 668.955 523.321 668.938 522.677 668.938C521.996 668.938 521.119 669.009 520.045 669.152C519.007 669.296 517.843 669.6 516.554 670.065C515.3 670.495 513.976 671.14 512.579 671.999C511.218 672.858 509.876 674.022 508.551 675.49C507.226 676.923 505.973 678.713 504.791 680.861C503.609 682.974 502.607 685.534 501.783 688.542C501.354 690.046 500.852 692.212 500.279 695.041C499.742 697.834 499.151 700.985 498.507 704.494C497.898 708.003 497.271 711.745 496.627 715.72C496.018 719.694 495.427 723.597 494.854 727.429C494.317 731.26 493.816 734.912 493.351 738.386C492.885 741.823 492.527 744.777 492.276 747.248C492.205 747.714 491.99 748.125 491.632 748.483C491.31 748.877 490.898 749.074 490.396 749.074C489.895 749.074 489.448 748.949 489.054 748.698C488.696 748.448 488.445 748.072 488.302 747.57C487.836 745.852 487.102 743.47 486.1 740.427C485.097 737.383 483.933 733.964 482.608 730.168C481.319 726.337 479.905 722.272 478.365 717.976C476.826 713.679 475.286 709.436 473.746 705.246C472.242 701.021 470.774 696.993 469.342 693.161C467.945 689.294 466.71 685.892 465.636 682.956C465.457 684.961 465.17 687.199 464.776 689.67C464.418 692.105 463.917 694.737 463.272 697.565C462.664 700.358 461.894 703.33 460.963 706.481C460.032 709.597 458.922 712.837 457.633 716.203C455.628 721.359 453.264 725.764 450.543 729.416C447.857 733.068 445.029 736.112 442.057 738.547C439.085 740.982 436.059 742.915 432.979 744.348C429.936 745.744 427.071 746.8 424.386 747.517C421.7 748.233 419.283 748.68 417.135 748.859C414.986 749.074 413.339 749.182 412.193 749.182C408.255 749.182 404.62 748.662 401.29 747.624C397.996 746.586 395.131 745.118 392.696 743.22C390.297 741.286 388.417 738.994 387.057 736.345C385.732 733.659 385.069 730.705 385.069 727.482C385.069 724.582 385.714 721.879 387.003 719.372C388.328 716.83 390.082 714.628 392.267 712.766C394.487 710.904 397.011 709.436 399.84 708.361C402.704 707.287 405.676 706.75 408.756 706.75C411.298 706.75 413.572 707.001 415.577 707.502C417.618 708.003 419.409 708.648 420.948 709.436C422.524 710.188 423.867 711.011 424.977 711.906C426.122 712.801 427.053 713.661 427.77 714.484C428.521 715.272 429.076 715.952 429.435 716.525C429.828 717.098 430.061 717.438 430.133 717.546C430.276 717.832 430.348 718.155 430.348 718.513C430.348 719.014 430.151 719.479 429.757 719.909C429.399 720.339 428.915 720.554 428.307 720.554C427.519 720.554 426.928 720.196 426.534 719.479C426.498 719.372 426.14 718.871 425.46 717.976C424.815 717.045 423.795 716.042 422.398 714.968C421.038 713.894 419.265 712.927 417.081 712.067C414.897 711.172 412.247 710.725 409.132 710.725C406.59 710.725 404.101 711.154 401.666 712.014C399.267 712.873 397.136 714.055 395.274 715.559C393.412 717.062 391.909 718.853 390.763 720.93C389.653 722.971 389.098 725.191 389.098 727.59C389.098 730.204 389.706 732.603 390.924 734.787C392.141 736.936 393.788 738.78 395.865 740.319C397.978 741.859 400.413 743.059 403.17 743.918C405.963 744.742 408.935 745.153 412.086 745.153C413.303 745.153 414.915 745.064 416.92 744.885C418.925 744.706 421.163 744.294 423.634 743.649C426.14 743.005 428.772 742.038 431.529 740.749C434.286 739.424 437.008 737.634 439.693 735.378C442.379 733.122 444.939 730.311 447.374 726.945C449.845 723.579 452.011 719.497 453.873 714.699C455.807 709.758 457.311 705.067 458.385 700.627C459.495 696.151 460.318 692.123 460.855 688.542C461.393 684.961 461.715 681.918 461.822 679.411C461.965 676.869 462.037 675.061 462.037 673.986V672.912C462.037 672.339 462.216 671.856 462.574 671.462C462.968 671.032 463.469 670.817 464.078 670.817C464.973 670.817 465.6 671.265 465.958 672.16C466.065 672.411 466.37 673.252 466.871 674.685C467.408 676.117 468.089 677.979 468.912 680.271C469.771 682.526 470.738 685.14 471.812 688.112C472.923 691.084 474.086 694.253 475.304 697.619C476.521 700.949 477.774 704.405 479.063 707.985C480.353 711.566 481.606 715.093 482.823 718.566C484.076 722.04 485.258 725.388 486.368 728.61C487.478 731.833 488.481 734.769 489.376 737.419C489.77 734.554 490.2 731.529 490.665 728.342C491.131 725.119 491.614 721.879 492.115 718.62C492.652 715.326 493.172 712.103 493.673 708.952C494.21 705.801 494.729 702.847 495.23 700.09C495.768 697.333 496.251 694.862 496.681 692.678C497.11 690.493 497.504 688.739 497.862 687.414C498.65 684.263 499.778 681.327 501.246 678.605C502.714 675.848 504.487 673.449 506.563 671.408C508.676 669.367 511.075 667.774 513.761 666.628C516.482 665.446 519.49 664.855 522.784 664.855C524.037 664.855 524.933 664.999 525.47 665.285C526.043 665.572 526.329 666.127 526.329 666.95V667.219Z" fill="black"/>
<path d="M518.326 705.837C518.326 707.198 517.843 708.361 516.876 709.328C515.945 710.259 514.799 710.725 513.438 710.725C512.078 710.725 510.914 710.259 509.947 709.328C509.016 708.361 508.551 707.198 508.551 705.837C508.551 705.157 508.676 704.53 508.927 703.957C509.177 703.348 509.518 702.829 509.947 702.399C510.413 701.934 510.932 701.576 511.505 701.325C512.114 701.075 512.758 700.949 513.438 700.949C514.119 700.949 514.745 701.075 515.318 701.325C515.927 701.576 516.446 701.934 516.876 702.399C517.341 702.829 517.7 703.348 517.95 703.957C518.201 704.53 518.326 705.157 518.326 705.837ZM509.625 737.312C509.625 732.155 509.947 727.017 510.592 721.896C510.663 721.395 510.878 720.965 511.236 720.607C511.63 720.214 512.132 720.017 512.74 720.017C513.277 720.017 513.725 720.231 514.083 720.661C514.441 721.055 514.62 721.521 514.62 722.058C514.62 722.272 514.566 722.917 514.459 723.991C514.387 725.065 514.28 726.354 514.137 727.858C514.029 729.326 513.922 730.902 513.814 732.585C513.743 734.232 513.707 735.754 513.707 737.15C513.707 739.048 513.886 740.588 514.244 741.77C514.638 742.915 515.121 743.811 515.694 744.455C516.303 745.1 516.93 745.529 517.574 745.744C518.255 745.959 518.899 746.066 519.508 746.066C520.51 746.066 521.549 745.708 522.623 744.992C523.697 744.276 524.789 743.273 525.899 741.984C527.045 740.695 528.191 739.156 529.337 737.365C530.483 735.539 531.611 733.516 532.721 731.296C532.9 730.938 533.15 730.669 533.473 730.49C533.795 730.275 534.153 730.168 534.547 730.168C535.12 730.168 535.585 730.383 535.943 730.812C536.337 731.242 536.534 731.708 536.534 732.209C536.534 732.567 536.463 732.871 536.319 733.122C535.89 733.946 535.353 734.948 534.708 736.13C534.063 737.312 533.329 738.529 532.506 739.782C531.682 741.035 530.769 742.289 529.767 743.542C528.8 744.759 527.761 745.869 526.651 746.872C525.541 747.839 524.378 748.627 523.16 749.235C521.943 749.844 520.707 750.148 519.454 750.148C517.843 750.148 516.428 749.808 515.211 749.128C513.993 748.448 512.955 747.535 512.096 746.389C511.272 745.243 510.646 743.9 510.216 742.36C509.822 740.785 509.625 739.102 509.625 737.312ZM515.318 705.837C515.318 705.336 515.121 704.906 514.728 704.548C514.369 704.154 513.94 703.957 513.438 703.957C512.937 703.957 512.507 704.154 512.149 704.548C511.791 704.906 511.612 705.336 511.612 705.837C511.612 706.338 511.791 706.768 512.149 707.126C512.507 707.484 512.937 707.663 513.438 707.663C513.94 707.663 514.369 707.484 514.728 707.126C515.121 706.768 515.318 706.338 515.318 705.837Z" fill="black"/>
<path d="M538.307 725.925C538.163 726.892 537.984 727.805 537.77 728.664C537.555 729.488 537.34 730.222 537.125 730.866C536.946 731.475 536.785 731.976 536.642 732.37C536.498 732.764 536.409 732.979 536.373 733.015C536.015 733.838 535.388 734.25 534.493 734.25C533.992 734.25 533.526 734.071 533.097 733.713C532.667 733.319 532.452 732.836 532.452 732.263C532.452 732.048 532.488 731.887 532.56 731.779C532.631 731.672 532.739 731.457 532.882 731.135C533.025 730.812 533.204 730.275 533.419 729.523C533.634 728.771 533.902 727.608 534.225 726.032C533.616 726.032 532.989 726.014 532.345 725.979C531.7 725.943 531.109 725.817 530.572 725.603C529.999 725.388 529.534 725.048 529.176 724.582C528.818 724.117 528.639 723.472 528.639 722.648C528.639 722.04 528.818 721.216 529.176 720.178C529.498 719.139 529.946 718.119 530.519 717.116C531.091 716.114 531.736 715.254 532.452 714.538C533.168 713.786 533.884 713.41 534.601 713.41C535.424 713.41 536.087 713.715 536.588 714.323C537.125 714.932 537.537 715.684 537.823 716.579C538.11 717.438 538.307 718.352 538.414 719.318C538.557 720.285 538.629 721.127 538.629 721.843C539.238 721.843 539.828 721.843 540.401 721.843C541.01 721.807 541.583 721.789 542.12 721.789C544.161 721.789 545.719 722.237 546.793 723.132C547.867 724.027 548.404 725.495 548.404 727.536C548.404 728.36 548.351 729.219 548.243 730.114C548.136 731.009 548.01 731.94 547.867 732.907C547.724 733.838 547.599 734.769 547.491 735.7C547.384 736.631 547.33 737.544 547.33 738.439C547.33 739.729 547.509 740.803 547.867 741.662C548.225 742.486 548.673 743.148 549.21 743.649C549.747 744.151 550.32 744.509 550.929 744.724C551.537 744.903 552.092 744.992 552.594 744.992C554.133 744.992 555.584 744.491 556.944 743.488C558.305 742.486 559.558 741.286 560.704 739.89C561.85 738.457 562.87 736.953 563.766 735.378C564.697 733.802 565.466 732.424 566.075 731.242C566.254 730.92 566.505 730.669 566.827 730.49C567.149 730.311 567.49 730.222 567.848 730.222C568.492 730.222 568.993 730.437 569.352 730.866C569.71 731.26 569.889 731.708 569.889 732.209C569.889 732.567 569.817 732.889 569.674 733.176C568.85 734.644 567.883 736.309 566.773 738.171C565.699 739.997 564.464 741.716 563.067 743.327C561.671 744.938 560.095 746.299 558.341 747.409C556.622 748.519 554.724 749.074 552.647 749.074C551.358 749.074 550.141 748.824 548.995 748.322C547.849 747.857 546.847 747.176 545.987 746.281C545.164 745.35 544.501 744.222 544 742.897C543.499 741.537 543.248 740.015 543.248 738.332C543.248 736.542 543.427 734.769 543.785 733.015C544.143 731.224 544.322 729.523 544.322 727.912C544.322 727.232 544.161 726.73 543.839 726.408C543.552 726.05 542.89 725.871 541.852 725.871C541.35 725.871 540.795 725.871 540.187 725.871C539.614 725.871 538.987 725.889 538.307 725.925ZM534.708 721.95C534.708 721.7 534.69 721.377 534.654 720.983C534.654 720.554 534.618 720.142 534.547 719.748C534.511 719.354 534.439 719.014 534.332 718.728C534.26 718.441 534.171 718.298 534.063 718.298C533.956 718.298 533.813 718.441 533.634 718.728C533.491 718.978 533.329 719.3 533.15 719.694C532.971 720.052 532.81 720.446 532.667 720.876C532.524 721.306 532.416 721.664 532.345 721.95H534.708Z" fill="black"/>
<path d="M578.482 743.22C579.02 742.146 579.7 740.821 580.523 739.245C581.383 737.634 582.26 736.022 583.155 734.411C584.086 732.8 584.981 731.278 585.841 729.846C586.736 728.413 587.488 727.321 588.097 726.569C589.135 725.316 590.209 724.421 591.319 723.884C592.429 723.347 593.45 723.078 594.381 723.078C595.312 723.078 596.1 723.275 596.744 723.669C597.424 724.063 597.979 724.6 598.409 725.28C598.839 725.925 599.161 726.695 599.376 727.59C599.591 728.449 599.698 729.38 599.698 730.383C599.698 730.956 599.662 731.708 599.591 732.639C599.555 733.57 599.501 734.572 599.43 735.646C599.394 736.721 599.34 737.831 599.269 738.977C599.233 740.122 599.197 741.197 599.161 742.199C599.698 741.125 600.307 739.943 600.987 738.654C601.668 737.329 602.348 736.022 603.028 734.733C603.744 733.444 604.425 732.245 605.069 731.135C605.714 729.989 606.305 729.058 606.842 728.342C608.382 726.229 609.814 724.815 611.139 724.099C612.499 723.382 613.699 723.024 614.737 723.024C615.955 723.024 616.957 723.257 617.745 723.723C618.533 724.152 619.142 724.725 619.571 725.441C620.037 726.122 620.359 726.892 620.538 727.751C620.717 728.61 620.807 729.434 620.807 730.222C620.807 731.439 620.717 732.71 620.538 734.035C620.359 735.36 620.27 736.936 620.27 738.762C620.27 739.514 620.305 740.266 620.377 741.018C620.449 741.77 620.592 742.432 620.807 743.005C621.057 743.578 621.433 744.043 621.935 744.401C622.436 744.759 623.116 744.938 623.976 744.938C624.907 744.938 625.82 744.706 626.715 744.24C627.61 743.739 628.469 743.094 629.293 742.307C630.117 741.519 630.886 740.624 631.603 739.621C632.354 738.618 633.035 737.616 633.644 736.613C634.252 735.611 634.789 734.662 635.255 733.767C635.72 732.836 636.096 732.048 636.383 731.403C636.562 731.009 636.812 730.705 637.135 730.49C637.457 730.275 637.815 730.168 638.209 730.168C638.818 730.168 639.301 730.401 639.659 730.866C640.053 731.296 640.25 731.761 640.25 732.263C640.25 732.513 640.196 732.764 640.089 733.015C639.946 733.301 639.659 733.91 639.229 734.841C638.8 735.736 638.227 736.774 637.511 737.956C636.795 739.102 635.953 740.319 634.986 741.608C634.055 742.897 633.017 744.097 631.871 745.207C630.725 746.281 629.49 747.176 628.165 747.893C626.84 748.573 625.444 748.913 623.976 748.913C622.4 748.913 621.111 748.627 620.108 748.054C619.142 747.517 618.354 746.783 617.745 745.852C617.172 744.921 616.778 743.846 616.563 742.629C616.349 741.411 616.241 740.14 616.241 738.815C616.241 737.061 616.331 735.45 616.51 733.981C616.689 732.478 616.778 731.314 616.778 730.49C616.778 729.595 616.689 728.915 616.51 728.449C616.367 727.984 616.17 727.661 615.919 727.482C615.704 727.268 615.489 727.16 615.274 727.16C615.06 727.124 614.898 727.106 614.791 727.106C613.932 727.106 613.019 727.59 612.052 728.557C611.121 729.488 610.154 730.741 609.151 732.316C608.149 733.892 607.11 735.682 606.036 737.688C604.998 739.693 603.941 741.734 602.867 743.811C602.258 744.956 601.739 745.905 601.31 746.657C600.916 747.409 600.522 748 600.128 748.43C599.77 748.859 599.412 749.164 599.054 749.343C598.696 749.522 598.302 749.611 597.872 749.611C596.941 749.611 596.225 749.289 595.724 748.645C595.258 748 595.025 747.159 595.025 746.12C595.025 745.583 595.043 744.867 595.079 743.972C595.115 743.076 595.151 742.092 595.187 741.018C595.222 739.943 595.276 738.833 595.348 737.688C595.419 736.542 595.473 735.45 595.509 734.411C595.545 733.337 595.58 732.388 595.616 731.564C595.652 730.741 595.67 730.114 595.67 729.685C595.67 728.754 595.509 728.091 595.187 727.697C594.864 727.268 594.488 727.053 594.059 727.053C593.665 727.053 593.217 727.196 592.716 727.482C592.25 727.769 591.695 728.324 591.051 729.147C590.549 729.792 589.905 730.741 589.117 731.994C588.365 733.212 587.56 734.572 586.7 736.076C585.841 737.58 584.981 739.12 584.122 740.695C583.299 742.271 582.582 743.685 581.974 744.938C581.222 746.442 580.47 747.463 579.718 748C578.966 748.573 578.232 748.859 577.516 748.859C576.477 748.859 575.707 748.555 575.206 747.946C574.705 747.302 574.454 746.46 574.454 745.422C574.454 745.314 574.472 744.67 574.508 743.488C574.579 742.307 574.651 740.874 574.723 739.191C574.794 737.473 574.866 735.646 574.938 733.713C575.045 731.779 575.134 729.971 575.206 728.288C575.242 727.393 575.206 726.569 575.099 725.817C574.991 725.065 574.848 724.618 574.669 724.475C574.382 724.546 573.81 725.209 572.95 726.462C572.127 727.715 571.07 729.899 569.781 733.015C569.602 733.409 569.334 733.713 568.976 733.928C568.618 734.143 568.242 734.25 567.848 734.25C567.239 734.25 566.756 734.053 566.397 733.659C566.039 733.229 565.86 732.746 565.86 732.209C565.86 731.958 565.914 731.69 566.021 731.403C567.633 727.572 569.173 724.761 570.641 722.971C572.109 721.145 573.541 720.231 574.938 720.231C575.761 720.231 576.441 720.428 576.979 720.822C577.551 721.18 577.999 721.664 578.321 722.272C578.644 722.845 578.876 723.508 579.02 724.26C579.163 725.012 579.234 725.746 579.234 726.462C579.234 729.649 579.145 732.567 578.966 735.217C578.823 737.867 578.661 740.534 578.482 743.22Z" fill="black"/>
<path d="M677.955 733.015C677.812 733.301 677.507 733.91 677.042 734.841C676.612 735.736 676.039 736.774 675.323 737.956C674.643 739.138 673.837 740.373 672.906 741.662C671.975 742.951 670.937 744.133 669.791 745.207C668.645 746.281 667.41 747.176 666.085 747.893C664.76 748.573 663.364 748.913 661.896 748.913C659.819 748.913 658.064 748.251 656.632 746.926C655.235 745.601 654.215 743.936 653.57 741.931C652.353 743.972 650.903 745.601 649.22 746.818C647.537 748 645.854 748.591 644.171 748.591C642.846 748.591 641.646 748.358 640.572 747.893C639.498 747.391 638.585 746.711 637.833 745.852C637.081 744.956 636.49 743.918 636.061 742.736C635.667 741.555 635.47 740.266 635.47 738.869C635.47 736.076 635.935 733.623 636.866 731.511C637.833 729.362 639.05 727.572 640.519 726.14C641.987 724.707 643.598 723.633 645.353 722.917C647.143 722.201 648.862 721.843 650.509 721.843C651.619 721.843 652.639 722.004 653.57 722.326C654.501 722.613 655.289 722.935 655.934 723.293C656.614 723.651 657.133 723.991 657.491 724.313C657.849 724.6 658.046 724.761 658.082 724.797C658.476 725.262 658.673 725.746 658.673 726.247C658.673 726.784 658.476 727.268 658.082 727.697C657.688 728.091 657.223 728.288 656.686 728.288C656.113 728.288 655.629 728.091 655.235 727.697C655.164 727.626 655.003 727.5 654.752 727.321C654.501 727.106 654.161 726.892 653.731 726.677C653.302 726.462 652.783 726.283 652.174 726.14C651.601 725.961 650.938 725.871 650.187 725.871C649.076 725.871 647.895 726.122 646.642 726.623C645.388 727.124 644.243 727.912 643.204 728.986C642.166 730.025 641.288 731.35 640.572 732.961C639.892 734.536 639.552 736.416 639.552 738.601C639.552 739.281 639.623 739.979 639.767 740.695C639.91 741.376 640.16 742.002 640.519 742.575C640.877 743.148 641.36 743.614 641.969 743.972C642.577 744.33 643.329 744.509 644.225 744.509C644.869 744.509 645.603 744.294 646.427 743.864C647.286 743.435 648.092 742.772 648.844 741.877C649.632 740.982 650.33 739.854 650.938 738.493C651.583 737.132 652.031 735.521 652.281 733.659C652.353 733.158 652.586 732.746 652.979 732.424C653.373 732.066 653.839 731.887 654.376 731.887C654.877 731.887 655.307 732.084 655.665 732.478C656.059 732.871 656.274 733.319 656.31 733.82C656.345 734.501 656.417 735.467 656.524 736.721C656.632 737.938 656.865 739.156 657.223 740.373C657.617 741.59 658.189 742.647 658.941 743.542C659.693 744.437 660.732 744.885 662.057 744.885C662.916 744.885 663.757 744.652 664.581 744.187C665.44 743.721 666.264 743.112 667.052 742.36C667.875 741.573 668.645 740.695 669.361 739.729C670.113 738.726 670.794 737.723 671.402 736.721C672.011 735.718 672.548 734.751 673.014 733.82C673.479 732.889 673.873 732.084 674.195 731.403C674.374 731.009 674.625 730.705 674.947 730.49C675.305 730.275 675.681 730.168 676.075 730.168C676.684 730.168 677.167 730.401 677.525 730.866C677.919 731.296 678.116 731.761 678.116 732.263C678.116 732.513 678.062 732.764 677.955 733.015Z" fill="black"/>
<path d="M704.811 733.122C704.417 733.946 703.915 734.93 703.307 736.076C702.734 737.186 702.071 738.35 701.319 739.567C700.567 740.785 699.726 742.002 698.795 743.22C697.864 744.401 696.843 745.476 695.733 746.442C694.659 747.373 693.495 748.125 692.242 748.698C691.025 749.307 689.718 749.611 688.321 749.611C686.173 749.611 684.329 748.949 682.789 747.624C681.249 746.299 679.942 744.562 678.868 742.414C677.794 740.266 676.917 737.831 676.236 735.109C675.592 732.352 675.09 729.559 674.732 726.73C674.374 723.866 674.124 721.091 673.98 718.405C673.873 715.72 673.819 713.339 673.819 711.262C673.819 708.254 673.909 705.139 674.088 701.916C674.303 698.693 674.625 695.542 675.055 692.463C675.484 689.383 676.021 686.465 676.666 683.708C677.346 680.951 678.134 678.534 679.029 676.457C679.96 674.38 681.017 672.733 682.198 671.516C683.38 670.298 684.723 669.689 686.227 669.689C687.408 669.689 688.465 669.976 689.396 670.549C690.362 671.086 691.168 671.981 691.812 673.234C692.457 674.488 692.958 676.117 693.316 678.122C693.674 680.127 693.854 682.58 693.854 685.48C693.854 689.061 693.478 692.767 692.726 696.599C691.974 700.394 690.953 704.226 689.664 708.093C688.375 711.96 686.853 715.827 685.099 719.694C683.344 723.526 681.464 727.268 679.459 730.92C680.354 735.467 681.554 739.048 683.058 741.662C684.562 744.24 686.37 745.529 688.482 745.529C689.915 745.529 691.293 744.974 692.618 743.864C693.943 742.718 695.16 741.376 696.271 739.836C697.381 738.296 698.347 736.739 699.171 735.163C700.03 733.552 700.693 732.263 701.158 731.296C701.337 730.938 701.588 730.669 701.91 730.49C702.232 730.275 702.59 730.168 702.984 730.168C703.593 730.168 704.076 730.383 704.435 730.812C704.828 731.242 705.025 731.726 705.025 732.263C705.025 732.478 704.954 732.764 704.811 733.122ZM677.901 711.53C677.901 713.822 677.955 716.024 678.062 718.137C678.17 720.249 678.313 722.272 678.492 724.206C679.996 721.306 681.428 718.226 682.789 714.968C684.15 711.674 685.349 708.361 686.388 705.031C687.426 701.665 688.25 698.335 688.858 695.041C689.503 691.711 689.825 688.542 689.825 685.534C689.825 681.309 689.485 678.283 688.805 676.457C688.124 674.631 687.211 673.718 686.065 673.718C685.313 673.718 684.579 674.237 683.863 675.275C683.183 676.314 682.538 677.728 681.93 679.519C681.321 681.309 680.766 683.422 680.265 685.856C679.763 688.291 679.334 690.905 678.976 693.698C678.653 696.491 678.385 699.41 678.17 702.453C677.991 705.497 677.901 708.522 677.901 711.53Z" fill="black"/>
<path d="M820.772 691.604C820.665 692.105 820.432 692.499 820.074 692.785C819.716 693.072 819.322 693.215 818.893 693.215C818.248 693.215 817.729 693.018 817.335 692.624C816.941 692.194 816.744 691.711 816.744 691.174C816.744 690.637 816.798 690.118 816.905 689.616C817.013 689.079 817.066 688.56 817.066 688.059C817.066 685.445 816.261 683.099 814.649 681.022C813.038 678.946 810.746 677.209 807.774 675.812C804.838 674.38 801.257 673.288 797.032 672.536C792.807 671.784 788.098 671.408 782.906 671.408C778.932 671.408 774.921 671.677 770.875 672.214C766.865 672.715 762.997 673.467 759.273 674.47C755.585 675.437 752.13 676.672 748.907 678.176C745.685 679.644 742.874 681.363 740.475 683.332C738.111 685.266 736.249 687.432 734.889 689.831C733.528 692.194 732.848 694.79 732.848 697.619C732.848 699.803 733.313 701.737 734.244 703.42C735.211 705.067 736.518 706.517 738.165 707.771C739.812 708.988 741.746 710.044 743.966 710.939C746.222 711.799 748.657 712.533 751.271 713.142C753.884 713.715 756.606 714.198 759.435 714.592C762.263 714.95 765.11 715.254 767.975 715.505L776.246 716.203C780.364 716.561 784.052 716.937 787.311 717.331C790.569 717.725 793.434 718.226 795.904 718.835C800.022 719.873 803.066 721.359 805.035 723.293C807.005 725.227 807.989 727.805 807.989 731.027C807.989 734.143 807.13 736.882 805.411 739.245C803.692 741.608 801.347 743.596 798.375 745.207C795.403 746.818 791.93 748.036 787.955 748.859C783.98 749.683 779.719 750.095 775.172 750.095C770.23 750.095 765.88 749.755 762.12 749.074C758.396 748.43 755.263 747.714 752.721 746.926C750.214 746.102 748.299 745.35 746.974 744.67C745.649 743.99 744.933 743.614 744.825 743.542C744.181 743.184 743.858 742.611 743.858 741.823C743.858 741.215 744.073 740.731 744.503 740.373C744.933 739.979 745.398 739.782 745.899 739.782C746.293 739.782 746.651 739.89 746.974 740.104C747.009 740.104 747.618 740.427 748.8 741.071C750.017 741.68 751.808 742.36 754.171 743.112C756.57 743.864 759.524 744.545 763.033 745.153C766.542 745.762 770.624 746.066 775.279 746.066C779.898 746.066 783.98 745.69 787.525 744.938C791.07 744.187 794.042 743.148 796.441 741.823C798.876 740.463 800.702 738.887 801.92 737.097C803.173 735.271 803.8 733.301 803.8 731.188C803.8 729.935 803.567 728.861 803.102 727.966C802.672 727.035 802.063 726.247 801.275 725.603C800.488 724.922 799.539 724.349 798.429 723.884C797.354 723.418 796.173 723.024 794.884 722.702C793.523 722.344 792.055 722.04 790.479 721.789C788.94 721.538 787.346 721.324 785.699 721.145C784.052 720.965 782.387 720.804 780.704 720.661C779.057 720.518 777.428 720.375 775.816 720.231L767.545 719.533C761.028 718.996 755.335 718.173 750.465 717.062C745.631 715.917 741.603 714.466 738.38 712.712C735.157 710.922 732.74 708.791 731.129 706.32C729.518 703.85 728.712 700.967 728.712 697.673C728.712 694.307 729.464 691.228 730.968 688.435C732.507 685.606 734.584 683.063 737.198 680.808C739.848 678.552 742.927 676.6 746.437 674.953C749.981 673.27 753.759 671.874 757.77 670.764C761.78 669.654 765.934 668.83 770.23 668.293C774.527 667.72 778.753 667.434 782.906 667.434C788.098 667.434 792.61 667.756 796.441 668.4C800.309 669.009 803.603 669.815 806.324 670.817C809.081 671.784 811.337 672.894 813.092 674.147C814.846 675.401 816.261 676.636 817.335 677.854C819.877 680.826 821.148 684.209 821.148 688.005C821.148 689.258 821.023 690.458 820.772 691.604Z" fill="black"/>
<path d="M824.479 705.837C824.479 707.198 823.995 708.361 823.028 709.328C822.097 710.259 820.951 710.725 819.591 710.725C818.23 710.725 817.066 710.259 816.1 709.328C815.169 708.361 814.703 707.198 814.703 705.837C814.703 705.157 814.828 704.53 815.079 703.957C815.33 703.348 815.67 702.829 816.1 702.399C816.565 701.934 817.084 701.576 817.657 701.325C818.266 701.075 818.91 700.949 819.591 700.949C820.271 700.949 820.898 701.075 821.471 701.325C822.079 701.576 822.599 701.934 823.028 702.399C823.494 702.829 823.852 703.348 824.103 703.957C824.353 704.53 824.479 705.157 824.479 705.837ZM815.777 737.312C815.777 732.155 816.1 727.017 816.744 721.896C816.816 721.395 817.031 720.965 817.389 720.607C817.783 720.214 818.284 720.017 818.893 720.017C819.43 720.017 819.877 720.231 820.235 720.661C820.593 721.055 820.772 721.521 820.772 722.058C820.772 722.272 820.719 722.917 820.611 723.991C820.54 725.065 820.432 726.354 820.289 727.858C820.182 729.326 820.074 730.902 819.967 732.585C819.895 734.232 819.859 735.754 819.859 737.15C819.859 739.048 820.038 740.588 820.396 741.77C820.79 742.915 821.274 743.811 821.847 744.455C822.455 745.1 823.082 745.529 823.727 745.744C824.407 745.959 825.051 746.066 825.66 746.066C826.663 746.066 827.701 745.708 828.775 744.992C829.85 744.276 830.942 743.273 832.052 741.984C833.198 740.695 834.343 739.156 835.489 737.365C836.635 735.539 837.763 733.516 838.873 731.296C839.052 730.938 839.303 730.669 839.625 730.49C839.947 730.275 840.305 730.168 840.699 730.168C841.272 730.168 841.738 730.383 842.096 730.812C842.49 731.242 842.687 731.708 842.687 732.209C842.687 732.567 842.615 732.871 842.472 733.122C842.042 733.946 841.505 734.948 840.86 736.13C840.216 737.312 839.482 738.529 838.658 739.782C837.835 741.035 836.922 742.289 835.919 743.542C834.952 744.759 833.914 745.869 832.804 746.872C831.694 747.839 830.53 748.627 829.312 749.235C828.095 749.844 826.86 750.148 825.606 750.148C823.995 750.148 822.581 749.808 821.363 749.128C820.146 748.448 819.107 747.535 818.248 746.389C817.424 745.243 816.798 743.9 816.368 742.36C815.974 740.785 815.777 739.102 815.777 737.312ZM821.471 705.837C821.471 705.336 821.274 704.906 820.88 704.548C820.522 704.154 820.092 703.957 819.591 703.957C819.09 703.957 818.66 704.154 818.302 704.548C817.944 704.906 817.765 705.336 817.765 705.837C817.765 706.338 817.944 706.768 818.302 707.126C818.66 707.484 819.09 707.663 819.591 707.663C820.092 707.663 820.522 707.484 820.88 707.126C821.274 706.768 821.471 706.338 821.471 705.837Z" fill="black"/>
<path d="M869.381 733.122C868.987 733.946 868.486 734.93 867.877 736.076C867.304 737.186 866.642 738.35 865.89 739.567C865.138 740.785 864.296 742.002 863.365 743.22C862.434 744.401 861.414 745.476 860.304 746.442C859.229 747.373 858.066 748.125 856.812 748.698C855.595 749.307 854.288 749.611 852.892 749.611C850.743 749.611 848.899 748.949 847.359 747.624C845.82 746.299 844.513 744.562 843.438 742.414C842.364 740.266 841.487 737.831 840.807 735.109C840.162 732.352 839.661 729.559 839.303 726.73C838.945 723.866 838.694 721.091 838.551 718.405C838.443 715.72 838.39 713.339 838.39 711.262C838.39 708.254 838.479 705.139 838.658 701.916C838.873 698.693 839.195 695.542 839.625 692.463C840.055 689.383 840.592 686.465 841.236 683.708C841.917 680.951 842.704 678.534 843.6 676.457C844.531 674.38 845.587 672.733 846.769 671.516C847.95 670.298 849.293 669.689 850.797 669.689C851.979 669.689 853.035 669.976 853.966 670.549C854.933 671.086 855.738 671.981 856.383 673.234C857.027 674.488 857.529 676.117 857.887 678.122C858.245 680.127 858.424 682.58 858.424 685.48C858.424 689.061 858.048 692.767 857.296 696.599C856.544 700.394 855.523 704.226 854.234 708.093C852.945 711.96 851.424 715.827 849.669 719.694C847.914 723.526 846.035 727.268 844.029 730.92C844.924 735.467 846.124 739.048 847.628 741.662C849.132 744.24 850.94 745.529 853.053 745.529C854.485 745.529 855.864 744.974 857.188 743.864C858.513 742.718 859.731 741.376 860.841 739.836C861.951 738.296 862.918 736.739 863.741 735.163C864.601 733.552 865.263 732.263 865.729 731.296C865.908 730.938 866.158 730.669 866.48 730.49C866.803 730.275 867.161 730.168 867.555 730.168C868.163 730.168 868.647 730.383 869.005 730.812C869.399 731.242 869.596 731.726 869.596 732.263C869.596 732.478 869.524 732.764 869.381 733.122ZM842.472 711.53C842.472 713.822 842.525 716.024 842.633 718.137C842.74 720.249 842.883 722.272 843.062 724.206C844.566 721.306 845.999 718.226 847.359 714.968C848.72 711.674 849.92 708.361 850.958 705.031C851.996 701.665 852.82 698.335 853.429 695.041C854.073 691.711 854.396 688.542 854.396 685.534C854.396 681.309 854.055 678.283 853.375 676.457C852.695 674.631 851.782 673.718 850.636 673.718C849.884 673.718 849.15 674.237 848.434 675.275C847.753 676.314 847.109 677.728 846.5 679.519C845.891 681.309 845.336 683.422 844.835 685.856C844.334 688.291 843.904 690.905 843.546 693.698C843.224 696.491 842.955 699.41 842.74 702.453C842.561 705.497 842.472 708.522 842.472 711.53Z" fill="black"/>
<path d="M903.434 733.068C903.326 734.93 903.076 736.81 902.682 738.708C902.288 740.57 901.661 742.253 900.802 743.757C899.978 745.261 898.886 746.496 897.525 747.463C896.165 748.394 894.482 748.859 892.477 748.859C891.223 748.859 890.113 748.662 889.146 748.269C888.215 747.91 887.392 747.427 886.676 746.818C885.995 746.174 885.423 745.458 884.957 744.67C884.492 743.846 884.098 742.987 883.775 742.092C882.522 744.169 881.036 745.78 879.317 746.926C877.634 748.036 875.951 748.591 874.269 748.591C872.908 748.591 871.673 748.34 870.562 747.839C869.488 747.338 868.557 746.639 867.77 745.744C867.018 744.813 866.427 743.703 865.997 742.414C865.567 741.125 865.353 739.675 865.353 738.063C865.353 735.378 865.585 733.068 866.051 731.135C866.552 729.165 867.089 727.554 867.662 726.301C868.271 725.048 868.826 724.117 869.327 723.508C869.828 722.863 870.079 722.541 870.079 722.541C870.258 722.326 870.473 722.165 870.724 722.058C871.01 721.95 871.297 721.896 871.583 721.896C872.156 721.896 872.621 722.111 872.979 722.541C873.373 722.935 873.57 723.4 873.57 723.938C873.57 724.331 873.427 724.761 873.141 725.227C872.997 725.441 872.711 725.853 872.281 726.462C871.887 727.071 871.476 727.894 871.046 728.933C870.616 729.971 870.222 731.242 869.864 732.746C869.542 734.25 869.381 736.022 869.381 738.063C869.381 740.176 869.811 741.787 870.67 742.897C871.529 743.972 872.729 744.509 874.269 744.509C875.021 744.509 875.844 744.312 876.739 743.918C877.634 743.488 878.476 742.844 879.264 741.984C880.051 741.125 880.732 740.033 881.305 738.708C881.878 737.383 882.236 735.826 882.379 734.035L883.077 724.797C883.113 724.26 883.328 723.812 883.722 723.454C884.151 723.096 884.635 722.917 885.172 722.917C885.781 722.917 886.264 723.15 886.622 723.615C886.98 724.045 887.159 724.546 887.159 725.119L886.568 733.981C886.461 735.879 886.515 737.508 886.729 738.869C886.98 740.23 887.374 741.358 887.911 742.253C888.448 743.112 889.111 743.757 889.898 744.187C890.686 744.58 891.563 744.777 892.53 744.777C893.819 744.777 894.911 744.401 895.807 743.649C896.702 742.897 897.418 741.877 897.955 740.588C898.492 739.299 898.868 737.813 899.083 736.13C899.334 734.411 899.459 732.603 899.459 730.705C899.459 728.449 899.334 726.569 899.083 725.065C898.832 723.562 898.707 722.559 898.707 722.058C898.707 721.521 898.904 721.055 899.298 720.661C899.692 720.231 900.175 720.017 900.748 720.017C901.249 720.017 901.679 720.178 902.037 720.5C902.395 720.786 902.628 721.18 902.735 721.682C902.771 721.825 902.879 722.237 903.058 722.917C903.237 723.597 903.487 724.421 903.81 725.388C904.132 726.319 904.544 727.321 905.045 728.396C905.582 729.434 906.209 730.401 906.925 731.296C907.677 732.191 908.518 732.943 909.449 733.552C910.416 734.125 911.508 734.411 912.726 734.411C913.406 734.411 913.979 734.286 914.444 734.035C914.946 733.749 915.357 733.426 915.68 733.068C916.002 732.71 916.235 732.37 916.378 732.048C916.557 731.726 916.664 731.529 916.7 731.457C916.879 731.063 917.13 730.759 917.452 730.544C917.81 730.293 918.186 730.168 918.58 730.168C919.189 730.168 919.672 730.401 920.03 730.866C920.424 731.296 920.621 731.761 920.621 732.263C920.621 732.692 920.424 733.265 920.03 733.981C919.672 734.698 919.153 735.396 918.473 736.076C917.792 736.721 916.951 737.294 915.948 737.795C914.981 738.26 913.907 738.493 912.726 738.493C911.687 738.493 910.72 738.35 909.825 738.063C908.93 737.741 908.089 737.329 907.301 736.828C906.549 736.327 905.851 735.754 905.206 735.109C904.562 734.465 903.971 733.785 903.434 733.068Z" fill="black"/>
<path d="M958.326 733.015C958.183 733.301 957.879 733.91 957.413 734.841C956.983 735.736 956.41 736.774 955.694 737.956C955.014 739.138 954.208 740.373 953.277 741.662C952.346 742.951 951.308 744.133 950.162 745.207C949.016 746.281 947.781 747.176 946.456 747.893C945.131 748.573 943.735 748.913 942.267 748.913C940.19 748.913 938.435 748.251 937.003 746.926C935.606 745.601 934.586 743.936 933.941 741.931C932.724 743.972 931.274 745.601 929.591 746.818C927.908 748 926.225 748.591 924.542 748.591C923.217 748.591 922.018 748.358 920.943 747.893C919.869 747.391 918.956 746.711 918.204 745.852C917.452 744.956 916.861 743.918 916.432 742.736C916.038 741.555 915.841 740.266 915.841 738.869C915.841 736.076 916.306 733.623 917.237 731.511C918.204 729.362 919.422 727.572 920.89 726.14C922.358 724.707 923.969 723.633 925.724 722.917C927.514 722.201 929.233 721.843 930.88 721.843C931.99 721.843 933.01 722.004 933.941 722.326C934.872 722.613 935.66 722.935 936.305 723.293C936.985 723.651 937.504 723.991 937.862 724.313C938.22 724.6 938.417 724.761 938.453 724.797C938.847 725.262 939.044 725.746 939.044 726.247C939.044 726.784 938.847 727.268 938.453 727.697C938.059 728.091 937.594 728.288 937.057 728.288C936.484 728.288 936 728.091 935.606 727.697C935.535 727.626 935.374 727.5 935.123 727.321C934.872 727.106 934.532 726.892 934.103 726.677C933.673 726.462 933.154 726.283 932.545 726.14C931.972 725.961 931.31 725.871 930.558 725.871C929.448 725.871 928.266 726.122 927.013 726.623C925.759 727.124 924.614 727.912 923.575 728.986C922.537 730.025 921.66 731.35 920.943 732.961C920.263 734.536 919.923 736.416 919.923 738.601C919.923 739.281 919.994 739.979 920.138 740.695C920.281 741.376 920.532 742.002 920.89 742.575C921.248 743.148 921.731 743.614 922.34 743.972C922.949 744.33 923.701 744.509 924.596 744.509C925.24 744.509 925.974 744.294 926.798 743.864C927.657 743.435 928.463 742.772 929.215 741.877C930.003 740.982 930.701 739.854 931.31 738.493C931.954 737.132 932.402 735.521 932.652 733.659C932.724 733.158 932.957 732.746 933.351 732.424C933.744 732.066 934.21 731.887 934.747 731.887C935.248 731.887 935.678 732.084 936.036 732.478C936.43 732.871 936.645 733.319 936.681 733.82C936.716 734.501 936.788 735.467 936.896 736.721C937.003 737.938 937.236 739.156 937.594 740.373C937.988 741.59 938.561 742.647 939.312 743.542C940.064 744.437 941.103 744.885 942.428 744.885C943.287 744.885 944.129 744.652 944.952 744.187C945.812 743.721 946.635 743.112 947.423 742.36C948.246 741.573 949.016 740.695 949.732 739.729C950.484 738.726 951.165 737.723 951.773 736.721C952.382 735.718 952.919 734.751 953.385 733.82C953.85 732.889 954.244 732.084 954.566 731.403C954.745 731.009 954.996 730.705 955.318 730.49C955.676 730.275 956.052 730.168 956.446 730.168C957.055 730.168 957.538 730.401 957.896 730.866C958.29 731.296 958.487 731.761 958.487 732.263C958.487 732.513 958.434 732.764 958.326 733.015Z" fill="black"/>
<path d="M985.182 733.122C984.788 733.946 984.286 734.93 983.678 736.076C983.105 737.186 982.442 738.35 981.69 739.567C980.938 740.785 980.097 742.002 979.166 743.22C978.235 744.401 977.215 745.476 976.104 746.442C975.03 747.373 973.867 748.125 972.613 748.698C971.396 749.307 970.089 749.611 968.692 749.611C966.544 749.611 964.7 748.949 963.16 747.624C961.62 746.299 960.313 744.562 959.239 742.414C958.165 740.266 957.288 737.831 956.607 735.109C955.963 732.352 955.462 729.559 955.104 726.73C954.745 723.866 954.495 721.091 954.352 718.405C954.244 715.72 954.19 713.339 954.19 711.262C954.19 708.254 954.28 705.139 954.459 701.916C954.674 698.693 954.996 695.542 955.426 692.463C955.855 689.383 956.393 686.465 957.037 683.708C957.717 680.951 958.505 678.534 959.4 676.457C960.331 674.38 961.388 672.733 962.569 671.516C963.751 670.298 965.094 669.689 966.598 669.689C967.779 669.689 968.836 669.976 969.767 670.549C970.733 671.086 971.539 671.981 972.184 673.234C972.828 674.488 973.329 676.117 973.688 678.122C974.046 680.127 974.225 682.58 974.225 685.48C974.225 689.061 973.849 692.767 973.097 696.599C972.345 700.394 971.324 704.226 970.035 708.093C968.746 711.96 967.224 715.827 965.47 719.694C963.715 723.526 961.835 727.268 959.83 730.92C960.725 735.467 961.925 739.048 963.429 741.662C964.933 744.24 966.741 745.529 968.854 745.529C970.286 745.529 971.664 744.974 972.989 743.864C974.314 742.718 975.532 741.376 976.642 739.836C977.752 738.296 978.718 736.739 979.542 735.163C980.401 733.552 981.064 732.263 981.529 731.296C981.708 730.938 981.959 730.669 982.281 730.49C982.604 730.275 982.962 730.168 983.355 730.168C983.964 730.168 984.448 730.383 984.806 730.812C985.2 731.242 985.396 731.726 985.396 732.263C985.396 732.478 985.325 732.764 985.182 733.122ZM958.272 711.53C958.272 713.822 958.326 716.024 958.434 718.137C958.541 720.249 958.684 722.272 958.863 724.206C960.367 721.306 961.799 718.226 963.16 714.968C964.521 711.674 965.72 708.361 966.759 705.031C967.797 701.665 968.621 698.335 969.229 695.041C969.874 691.711 970.196 688.542 970.196 685.534C970.196 681.309 969.856 678.283 969.176 676.457C968.495 674.631 967.582 673.718 966.437 673.718C965.685 673.718 964.951 674.237 964.234 675.275C963.554 676.314 962.91 677.728 962.301 679.519C961.692 681.309 961.137 683.422 960.636 685.856C960.134 688.291 959.705 690.905 959.347 693.698C959.024 696.491 958.756 699.41 958.541 702.453C958.362 705.497 958.272 708.522 958.272 711.53Z" fill="black"/>
</g>
<defs>
<filter id="filter0_d" x="381.069" y="664.855" width="608.327" height="93.293" filterUnits="userSpaceOnUse" color-interpolation-filters="sRGB">
<feFlood flood-opacity="0" result="BackgroundImageFix"/>
<feColorMatrix in="SourceAlpha" type="matrix" values="0 0 0 0 0 0 0 0 0 0 0 0 0 0 0 0 0 0 127 0" result="hardAlpha"/>
<feOffset dy="4"/>
<feGaussianBlur stdDeviation="2"/>
<feComposite in2="hardAlpha" operator="out"/>
<feColorMatrix type="matrix" values="0 0 0 0 0 0 0 0 0 0 0 0 0 0 0 0 0 0 0.25 0"/>
<feBlend mode="normal" in2="BackgroundImageFix" result="effect1_dropShadow"/>
<feBlend mode="normal" in="SourceGraphic" in2="effect1_dropShadow" result="shape"/>
</filter>
</defs>
</svg>
